<?xml version="1.0" encoding="UTF-8" standalone="no"?>
<!-- Created with Inkscape (http://www.inkscape.org/) -->

<svg
   width="400mm"
   height="200mm"
   viewBox="0 0 400 200"
   version="1.1"
   id="svg197983"
   inkscape:version="1.1 (c68e22c387, 2021-05-23)"
   sodipodi:docname="discount2.svg"
   xmlns:inkscape="http://www.inkscape.org/namespaces/inkscape"
   xmlns:sodipodi="http://sodipodi.sourceforge.net/DTD/sodipodi-0.dtd"
   xmlns="http://www.w3.org/2000/svg"
   xmlns:svg="http://www.w3.org/2000/svg">
  <sodipodi:namedview
     id="namedview197985"
     pagecolor="#ffffff"
     bordercolor="#666666"
     borderopacity="1.0"
     inkscape:pageshadow="2"
     inkscape:pageopacity="0.0"
     inkscape:pagecheckerboard="0"
     inkscape:document-units="mm"
     showgrid="false"
     inkscape:zoom="1.0192238"
     inkscape:cx="653.43843"
     inkscape:cy="429.24822"
     inkscape:window-width="1920"
     inkscape:window-height="1017"
     inkscape:window-x="-8"
     inkscape:window-y="-8"
     inkscape:window-maximized="1"
     inkscape:current-layer="layer1" />
  <defs
     id="defs197980" />
  <g
     inkscape:label="Слой 1"
     inkscape:groupmode="layer"
     id="layer1">
    <text
       xml:space="preserve"
       style="font-size:36px;line-height:1.25;font-family:Amiri;-inkscape-font-specification:Amiri;stroke-width:0.264583"
       x="56.536465"
       y="32.306549"
       id="text200511"><tspan
         sodipodi:role="line"
         id="tspan200509"
         style="stroke-width:0.264583"
         x="56.536465"
         y="32.306549">Семейные скидки!</tspan></text>
    <text
       xml:space="preserve"
       style="font-size:18px;line-height:1.25;font-family:Amiri;-inkscape-font-specification:Amiri;stroke-width:0.264583"
       x="38.18047"
       y="58.004944"
       id="text203695"><tspan
         sodipodi:role="line"
         style="stroke-width:0.264583"
         x="38.18047"
         y="58.004944"
         id="tspan204643">Учитесь всей семьёй и получайте скидки!</tspan></text>
    <ellipse
       style="fill:#ffffff;fill-opacity:1;stroke:#000000;stroke-width:0.465;stroke-miterlimit:4;stroke-dasharray:none;stroke-opacity:1"
       id="path209895"
       cx="64.613098"
       cy="145.01236"
       rx="19.090235"
       ry="20.191595" />
    <ellipse
       style="fill:#ffffff;fill-opacity:1;stroke:#000000;stroke-width:0.465;stroke-miterlimit:4;stroke-dasharray:none;stroke-opacity:1"
       id="path209895-1"
       cx="150.51917"
       cy="144.64523"
       rx="19.090235"
       ry="20.191595" />
    <ellipse
       style="fill:#ffffff;fill-opacity:1;stroke:#000000;stroke-width:0.465;stroke-miterlimit:4;stroke-dasharray:none;stroke-opacity:1"
       id="path209895-19"
       cx="239.36217"
       cy="144.64523"
       rx="19.090235"
       ry="20.191595" />
    <ellipse
       style="fill:#ffffff;fill-opacity:1;stroke:#000000;stroke-width:0.465;stroke-miterlimit:4;stroke-dasharray:none;stroke-opacity:1"
       id="path209895-3"
       cx="328.93942"
       cy="144.64525"
       rx="19.090235"
       ry="20.191595" />
    <ellipse
       style="fill:#00ffff;fill-opacity:1;stroke:#000000;stroke-width:0.465;stroke-miterlimit:4;stroke-dasharray:none;stroke-opacity:1"
       id="path210399"
       cx="337.38318"
       cy="140.42336"
       rx="4.4054384"
       ry="4.0383186" />
    <ellipse
       style="fill:#00ffff;fill-opacity:1;stroke:#000000;stroke-width:0.465;stroke-miterlimit:4;stroke-dasharray:none;stroke-opacity:1"
       id="path210399-2"
       cx="321.22989"
       cy="140.60692"
       rx="4.4054384"
       ry="4.0383186" />
    <path
       style="fill:none;stroke:#000000;stroke-width:0.264583px;stroke-linecap:butt;stroke-linejoin:miter;stroke-opacity:1"
       d="m 332.79418,140.05624 c -4.95612,-4.589 -7.15884,-0.18356 -7.15884,-0.18356"
       id="path210536"
       sodipodi:nodetypes="cc" />
    <path
       style="fill:none;stroke:#000000;stroke-width:0.264583px;stroke-linecap:butt;stroke-linejoin:miter;stroke-opacity:1"
       d="m 312.96972,133.08096 3.85474,6.05748"
       id="path210717" />
    <path
       style="fill:none;stroke:#000000;stroke-width:0.264583px;stroke-linecap:butt;stroke-linejoin:miter;stroke-opacity:1"
       d="m 344.17489,132.34672 -2.20271,7.3424"
       id="path210719" />
    <ellipse
       style="fill:#ffaaaa;fill-opacity:1;stroke:none;stroke-width:0.465;stroke-miterlimit:4;stroke-dasharray:none;stroke-opacity:1"
       id="path211000"
       cx="53.783066"
       cy="149.60136"
       rx="2.7533996"
       ry="2.936959" />
    <ellipse
       style="fill:#ffaaaa;fill-opacity:1;stroke:none;stroke-width:0.465;stroke-miterlimit:4;stroke-dasharray:none;stroke-opacity:1"
       id="path211000-0"
       cx="74.7089"
       cy="149.32602"
       rx="2.7533996"
       ry="2.936959" />
    <path
       style="fill:#ffdd55;fill-opacity:1;stroke:none;stroke-width:0.465;stroke-miterlimit:4;stroke-dasharray:none;stroke-opacity:1"
       id="path211194"
       d="m 45.43018,149.46929 c 0.515324,-2.23475 0.725511,-4.51175 0.701331,-6.80169 0.117054,-0.46232 -0.197924,-1.04567 -0.08175,-1.5227 0.02156,-0.0885 0.08758,-0.16037 0.120835,-0.2452 0.158115,-0.40341 0.293351,-0.81548 0.448098,-1.2202 0.343556,-1.3064 0.792305,-2.57445 1.241835,-3.84799 0.479531,-1.21753 0.813623,-2.49499 1.018106,-3.78704 -0.245541,0.5702 0.268846,-0.0538 0.488254,-0.1853 0.140193,-0.13442 0.272598,-0.27746 0.420579,-0.40325 0.589196,-0.50086 0.221327,-0.0649 0.870144,-0.67217 0.451019,-0.42214 0.864166,-0.89962 1.239882,-1.38819 0.265689,-0.23373 0.625483,-0.84124 0.892077,-1.04402 0.0364,-0.0277 -0.04259,0.122 5.29e-4,0.13718 0.07048,0.0248 0.143791,-0.0407 0.215689,-0.0611 0.839263,-0.1953 1.500325,-0.75462 2.206437,-1.20635 0.306096,-0.19582 0.670031,-0.34592 0.998429,-0.49499 0.63468,-0.13946 1.126736,-0.6005 1.702432,-0.86295 0.05673,-0.0258 0.126265,-0.004 0.185674,-0.0225 0.137771,-0.0438 0.26761,-0.10952 0.401415,-0.16428 0.102341,-0.0299 0.207807,-0.0506 0.307025,-0.0896 0.164153,-0.0645 0.314799,-0.16152 0.481124,-0.22021 0.488863,-0.17253 1.111189,-0.0906 1.619239,-0.0843 -0.226348,0.006 -0.452614,0.019 -0.679045,0.0184 -0.125597,-2.7e-4 0.250756,-0.0158 0.376307,-0.0193 0.527703,-0.0145 1.033917,0.0746 1.556144,0.13638 1.244314,0.11101 2.495026,0.0278 3.741999,0.0191 0.666983,-0.0101 0.235307,-0.003 0.886296,-0.0149 0.135583,-0.002 0.542195,-5.3e-4 0.406755,-0.007 -1.568638,-0.0775 -0.198358,-0.009 0.08753,0.003 1.193866,0.0346 2.388722,0.007 3.582816,5.2e-4 -2.424327,-0.0662 -1.187935,-0.18732 -0.85919,-0.0265 0.316934,0.15499 0.610648,0.34737 0.943711,0.46879 0.688819,0.31486 1.246531,0.81178 1.849763,1.25941 0.612828,0.3815 1.222824,0.71064 1.788953,1.15841 0.637591,0.53912 1.193411,1.16525 1.750957,1.78433 0.430771,0.4565 0.719394,1.02475 1.09478,1.52566 0.658564,1.01225 1.657921,1.69355 2.618774,2.38978 0.169953,0.19015 0.287131,0.12458 0.401672,0.28336 0.01074,0.0149 -0.03217,-0.0448 -0.04509,-0.0317 -0.0204,0.0206 -0.02246,0.0535 -0.03371,0.0802 -0.07331,1.14628 0.353531,2.15077 0.869045,3.14302 0.335032,0.60669 0.67858,1.21891 0.853983,1.89451 0.02146,0.51677 -0.089,1.03483 -0.146301,1.54819 -0.08785,0.82503 -0.05968,1.65505 -0.02944,2.48224 0.0065,0.85045 -0.0067,1.70133 0.0056,2.55239 -0.06788,0.91283 0.1822,1.7744 0.427765,2.63983 0.125535,0.53863 0.04059,1.09681 -0.02574,1.63779 -0.09429,0.979 -0.09274,1.96516 -0.08476,2.9478 0.02053,0.7818 0.06877,1.56235 0.08117,2.34438 -0.08977,0.99398 -0.09063,1.98993 -0.05872,2.98651 0.03572,0.69784 0.05974,1.39573 0.05762,2.09449 -0.03204,0.33914 0.02807,0.69016 -0.01392,1.02824 -0.01947,0.15686 -0.184216,0.50783 -0.225587,0.65194 -0.06797,0.29469 4.09951,1.25597 4.167482,0.96129 v 0 c 0.233386,-0.87171 0.372192,-1.74406 0.292915,-2.64872 -0.0049,-0.69316 0.01373,-1.38565 0.05316,-2.07778 0.0376,-1.00198 0.04608,-2.00366 -0.03578,-3.004 0.0083,-0.79301 0.02135,-1.58609 0.01217,-2.37916 -0.01397,-0.88679 7.94e-4,-1.7704 0.05368,-2.65634 0.01619,-0.94799 0.115123,-1.90508 -0.136647,-2.83537 -0.180882,-0.67283 -0.367191,-0.94417 -0.262143,-1.66977 0.02275,-0.90155 0.01111,-1.80114 -0.05221,-2.70087 -0.0227,-0.65555 -0.05259,-1.31348 0.01193,-1.96778 0.09544,-0.90356 0.248473,-1.8124 0.08994,-2.71963 -0.206412,-0.97353 -0.526669,-1.94004 -1.043345,-2.79545 -0.08071,-0.15787 -0.308993,-0.64324 -0.45499,-0.80616 -0.03851,-0.043 -0.149085,0.0457 -0.172972,-0.007 -0.02159,-0.0474 0.01318,-0.33245 0.01646,-0.36658 0.0555,-1.52161 -0.338947,-2.72569 -1.513202,-3.75151 -0.419047,-0.29407 -0.826516,-0.5865 -1.261314,-0.85122 -0.184888,-0.11257 -0.459507,-0.41084 -0.706445,-0.38437 -0.396221,-0.64989 -0.824426,-1.27924 -1.21471,-1.93665 -0.67038,-0.86029 -1.377998,-1.67161 -2.261293,-2.32679 -0.639704,-0.49517 -1.237562,-1.04355 -1.982142,-1.36717 -0.71854,-0.35393 -1.196237,-1.09951 -1.967772,-1.35078 -0.470644,-0.32559 -1.71323,-1.03244 -2.222432,-1.11912 -0.561604,-0.0956 -1.130935,-0.13836 -1.696402,-0.20753 0.230481,-0.002 0.461163,0.003 0.691443,-0.007 0.129035,-0.006 -0.258275,-0.004 -0.387416,-0.006 -0.573934,-0.009 -1.147998,-0.0182 -1.722001,-0.009 -1.218189,0.0293 -2.438691,-0.0489 -3.657205,0.007 -0.297937,0.0151 -0.595223,0.0426 -0.893313,0.0543 -0.11897,0.005 -0.476245,-8e-5 -0.357185,2e-4 1.575133,0.004 0.3268,0.003 0.01,0.0129 -1.313312,-0.0253 -2.563532,-0.53677 -3.90307,-0.26264 -1.248225,0.14015 -2.275104,0.49083 -3.404581,1.01428 -0.902044,0.36291 -1.812896,0.69721 -2.704653,1.08683 -1.075108,0.62499 -2.104194,1.32468 -3.179318,1.94999 -0.715854,0.51108 -1.282153,1.16739 -1.926805,1.7593 -0.782944,0.66334 -1.521134,1.38539 -2.180589,2.17212 -0.623557,0.62137 -1.206217,1.27668 -1.494706,2.12927 -0.455649,1.15859 -0.852612,2.3361 -1.235321,3.5209 -0.325826,1.28707 -0.764008,2.54047 -1.158832,3.80761 -0.582957,2.12424 0.07335,-0.3545 -0.287457,1.22366 -0.204351,0.89381 -0.5714,1.74858 -0.645803,2.67354 -0.317368,2.3208 -0.554675,4.72654 -0.154667,7.04874 0,0.2984 4.220064,0.2984 4.220064,0 z" />
    <path
       style="fill:#ffdd55;fill-opacity:1;stroke:none;stroke-width:0.465;stroke-miterlimit:4;stroke-dasharray:none;stroke-opacity:1"
       id="path211196"
       d="m 41.555225,147.22672 c -0.06596,2.07943 0.06668,4.17813 0.276712,6.24858 0.100833,1.01717 0.439171,1.98995 0.609087,2.99358 -0.282914,1.25651 -0.295413,2.54622 -0.344888,3.82636 0.0118,1.56849 0.324422,3.09088 1.092444,4.46223 0.0363,0.0579 0.07259,0.11579 0.108892,0.17369 0.100071,0.27861 4.040275,-1.1366 3.940204,-1.41522 v 0 c -0.03493,-0.10575 -0.06985,-0.2115 -0.104783,-0.31725 -0.324025,-0.92796 -0.347379,-1.90294 -0.451641,-2.87504 -0.03136,-1.22164 -0.02892,-2.44386 -0.0789,-3.66519 0.126481,-1.17948 0.07102,-2.36486 -2.46e-4,-3.54698 -0.155499,-1.96765 -0.198562,-3.98599 -0.782791,-5.88476 0,-0.30152 -4.264086,-0.30152 -4.264086,0 z" />
    <path
       style="fill:#ffdd55;fill-opacity:1;stroke:none;stroke-width:0.465;stroke-miterlimit:4;stroke-dasharray:none;stroke-opacity:1"
       id="path211198"
       d="m 47.669235,140.63992 c 0.530601,-1.76944 0.775174,-3.60528 1.225248,-5.39684 0.126643,-0.64779 0.357336,-1.2895 0.407342,-1.95246 0.0016,-0.0208 -0.03338,0.0261 -0.04516,0.0433 -0.193768,0.28295 -0.06791,0.1649 -0.179536,0.2641 0.132868,-0.28554 0.26574,-0.57109 0.398611,-0.85665 0.07673,-0.0189 0.07319,0.22801 0.142285,0.18965 0.243945,-0.13544 0.394049,-0.39516 0.593063,-0.59071 0.585176,-0.8281 1.190167,-1.63105 1.898547,-2.35761 0.581729,-0.26584 1.070197,-0.90633 1.718762,-0.98383 -1.130924,1.02578 -2.041038,-0.0128 -2.610752,-0.82981 -0.08625,-0.1237 -0.09216,-0.35944 -0.241149,-0.38277 -0.127037,-0.0199 -0.699659,0.6915 -0.873577,0.89238 -0.678056,1.01901 -1.643722,1.91264 -2.113275,3.0651 -0.09262,0.22732 -0.152175,0.46674 -0.228261,0.70012 -0.63798,-0.70293 0.08279,0.61189 -0.125897,0.61328 -0.205362,10e-4 0.377446,-0.61008 -0.220874,0.0875 -0.398706,0.46487 -0.614201,0.77444 -0.986216,1.27466 -0.938258,1.30882 -1.681586,2.76041 -2.131087,4.30806 0.335987,-1.01617 -0.270626,1.149 -0.1305,0.88557 0.06164,-0.11587 0.06398,-0.25464 0.09161,-0.38296 0.0048,-0.0221 0.01879,-0.086 0.0054,-0.0677 -0.206632,0.2822 -0.270772,0.51812 -0.406324,0.85324 -0.118559,0.5478 -0.40949,2.00192 -0.123684,2.51239 0.295978,0.52863 0.663151,1.01412 0.994727,1.52118 1.081323,-0.30226 2.237674,-0.40881 3.243969,-0.9068 0.314738,-0.15576 0.329832,-0.6203 0.4817,-0.93694 0.505966,-1.05488 0.907241,-2.13459 1.230903,-3.25721 0.129095,-0.64776 0.368332,-1.28439 0.481356,-1.93557 0.02797,-0.16116 -0.07004,0.21524 -0.07412,0.23072 0.58778,-0.80105 0.902237,-1.74997 1.296816,-2.65166 0.295296,-0.7234 0.888928,-1.21948 1.379143,-1.79794 0.554876,-0.3791 0.979749,-0.89687 1.390055,-1.42378 0.339439,-0.345 0.614005,-0.8236 1.056002,-1.05347 0.843402,-0.43863 -0.430191,0.40097 0.750583,-0.42988 0.624555,-0.4985 1.162868,-1.26285 1.513584,-1.8488 0.106674,0.0447 -0.0874,0.19259 -0.01913,0.22075 0.142529,0.0588 0.91526,-0.60966 1.219412,-0.70391 -0.02008,0.22135 0.547177,-0.61088 0.652793,-0.36635 0.01365,0.0316 -0.01029,0.0695 -0.0033,0.10315 0.0072,0.0348 0.07996,0.0924 0.04468,0.0969 -0.294823,0.0381 -0.594487,0.008 -0.891731,0.0125 0.65445,0.0162 1.300883,0.25947 1.95711,0.24255 0.59821,-0.0154 1.194885,-0.0679 1.792327,-0.10189 0.699064,-0.22774 1.353516,-0.5774 2.096133,-0.41817 -0.239888,0.0115 -0.481764,0.002 -0.719662,0.0346 -0.132739,0.0184 0.267986,0.005 0.40191,0.009 0.564759,0.0196 1.128961,0.0587 1.693397,0.0858 0.972862,0.0921 1.952683,0.0695 2.927977,0.0292 0.138912,-0.006 0.555429,-0.01 0.416684,-0.0184 -0.316693,-0.0203 -0.634595,-0.0105 -0.951891,-0.0158 0.429988,-0.0297 0.71533,0.33301 0.999389,0.61436 0.601208,0.64661 1.301827,1.25792 2.142353,1.5682 0.521017,0.32265 1.026856,0.69924 1.462071,1.13137 0.504148,0.68264 1.140572,1.24318 1.705716,1.87152 0.578461,0.634 1.129229,1.29772 1.74226,1.89926 0.454819,0.43339 0.794433,0.92681 1.035362,1.50068 0.187029,0.57909 0.390494,1.15445 0.451676,1.76349 0.135374,1.02071 0.663644,1.93799 1.36734,2.67574 0.261276,0.3433 0.623681,0.94257 0.98914,1.34975 0.383926,0.4265 0.546348,0.84337 0.841078,1.34768 0.432679,0.53329 1.536079,1.57643 2.251869,1.58186 -0.04674,-0.0502 -0.09348,-0.10032 -0.140216,-0.15048 0.183073,0.23646 3.527105,-2.35259 3.344032,-2.58905 v 0 c -0.201504,-0.20526 -0.403008,-0.41052 -0.604512,-0.61578 -0.172345,-0.10334 -0.589288,-0.41875 -0.869069,-0.41698 -0.139888,7.9e-4 0.10265,0.21671 -0.129649,0.0968 -0.08456,-0.0437 -0.132249,-0.17311 -0.227414,-0.17262 -0.05844,2.7e-4 0.01606,0.11578 0.0241,0.17367 -0.02159,-0.001 -0.04896,0.0106 -0.06478,-0.004 -0.181528,-0.16947 -0.194791,-0.45719 -0.305276,-0.67959 -0.304684,-0.61334 -0.113273,-0.1801 -0.355492,-0.5276 -0.110336,-0.15829 -0.210711,-0.3233 -0.316065,-0.48496 -0.07945,-0.0879 -0.158896,-0.17582 -0.238342,-0.26373 -0.01709,0.0156 -0.03317,0.061 -0.05129,0.0466 -0.333227,-0.26385 -0.424616,-0.8071 -0.72182,-1.10036 -0.06035,-0.0717 -0.108352,-0.15596 -0.181063,-0.21508 -0.01397,-0.0114 -0.01254,0.0623 -0.02392,0.0484 -0.09596,-0.11765 -0.104719,-0.38552 -0.256278,-0.37654 -0.03269,0.002 -0.0065,0.12281 -0.02413,0.0952 -0.04249,-0.0663 -0.04073,-0.15221 -0.06109,-0.22832 -0.11557,-0.9499 -0.360106,-1.88515 -0.641887,-2.79754 -0.373396,-0.84962 -0.771088,-1.65726 -1.469758,-2.29185 -0.537818,-0.80012 -1.18187,-1.50563 -1.880269,-2.16958 -0.585724,-0.62739 -1.175285,-1.23827 -1.740519,-1.88231 -0.615477,-0.68526 -1.307725,-1.27843 -2.07092,-1.79826 -0.168527,-0.12001 -0.327393,-0.25489 -0.505579,-0.36002 -0.363379,-0.21439 -0.786059,-0.11501 -1.033765,-0.53237 -0.795332,-0.92786 -1.677423,-1.79869 -2.910318,-2.09779 -0.577438,-0.0413 -1.154343,-0.0908 -1.732309,-0.12376 -0.274394,-0.0157 -1.099336,-2.6e-4 -0.824511,0.002 1.504789,0.0153 0.161967,-0.007 -0.131273,0.0348 -1.282472,-0.0708 -2.55256,-0.3071 -3.843803,-0.16272 -0.81666,0.1355 -1.602875,0.3759 -2.405597,0.54935 2.514362,0.016 -0.425416,0.005 -0.892056,-0.18932 -0.527968,-0.0136 -1.056087,-0.0593 -1.583907,-0.0407 -0.820187,0.0288 -1.493895,0.54046 -2.193782,0.89239 -0.735621,0.47332 -1.521515,0.93749 -2.050928,1.64821 -0.256074,0.37173 -0.454356,0.46645 -1.024544,0.83955 -0.958344,0.65185 -1.767551,1.44572 -2.363401,2.44631 -0.338116,0.43849 -0.913646,0.66973 -1.264242,1.1102 -0.919774,0.84847 -1.719578,1.8452 -2.130529,3.04149 -0.131365,0.42821 -0.389239,1.13937 -0.443097,1.50426 -0.722083,0.86783 -1.085136,1.93508 -1.468721,2.98304 -0.2745,0.78261 -0.613264,1.54174 -0.85916,2.33442 -0.07647,0.24649 -0.154773,0.49429 -0.195654,0.74912 -0.01259,0.0785 -0.04181,0.23887 0.03766,0.23563 0.963004,-0.0393 1.913089,-0.23616 2.869634,-0.35424 1.111417,1.97003 0.882195,1.63745 0.720027,0.44666 -0.189979,0.30188 0.142052,-0.21403 0.17037,-0.27553 0.132739,-0.28822 0.186582,-0.60865 0.319926,-0.8966 0.0087,-0.0187 0.0065,0.0408 0.0098,0.0611 0.794467,-1.15136 1.507664,-2.36014 2.199272,-3.57495 0.495057,-0.93169 0.95346,-1.88569 1.237059,-2.90344 0.0039,-0.014 9.3e-5,0.0292 1.38e-4,0.0437 -0.0098,0.0512 -0.08049,0.16352 -0.02926,0.15371 0.199848,-0.0383 1.719625,-1.83025 1.833227,-1.97572 0.226644,-0.29024 0.432778,-0.59593 0.649171,-0.8939 0.445322,-0.77297 0.910947,-1.42209 1.057788,-2.33262 0.39442,-2.4457 -0.548471,-3.09917 -2.945686,-3.43777 -0.295717,-0.0418 -0.575826,0.15873 -0.86374,0.2381 -1.064014,0.52914 -2.074153,1.18518 -2.929543,2.01578 -0.664382,0.75774 -1.247804,1.56993 -1.83256,2.38867 -0.442426,0.52707 -0.882803,1.01745 -1.113462,1.68101 -0.03381,0.0972 -0.133342,0.38459 -0.07529,0.29956 0.149746,-0.21934 0.23803,-0.47483 0.357045,-0.71225 -0.861481,0.82574 -1.200555,2.07747 -1.619229,3.15158 -0.498644,1.85278 -0.848815,3.78075 -0.770234,5.70723 -0.0493,0.29462 4.117181,0.99188 4.166484,0.69726 z" />
    <path
       style="fill:#ffdd55;fill-opacity:1;stroke:none;stroke-width:0.465;stroke-miterlimit:4;stroke-dasharray:none;stroke-opacity:1"
       id="path211200"
       d="m 43.757945,140.98568 c -0.137734,0.42262 -0.150511,2.33283 -0.518949,2.51811 0.165714,-0.34281 0.0037,-0.22455 0.163838,-0.48615 -0.271076,0.12237 1.459487,3.95597 1.730563,3.8336 v 0 c 0.780074,-0.3219 1.365829,-0.60301 1.892467,-1.31341 0.827783,-1.38328 1.305875,-2.92694 0.996164,-4.55215 0,-0.30152 -4.264083,-0.30152 -4.264083,0 z" />
    <path
       style="fill:none;stroke:#000000;stroke-width:0.264583px;stroke-linecap:butt;stroke-linejoin:miter;stroke-opacity:1"
       d="m 151.08311,164.84153 v 35.82384"
       id="path212724" />
    <path
       style="fill:none;stroke:#000000;stroke-width:0.264583px;stroke-linecap:butt;stroke-linejoin:miter;stroke-opacity:1"
       d="m 64.898242,165.09115 v 35.82383"
       id="path212724-8" />
    <path
       style="fill:none;stroke:#000000;stroke-width:0.264583px;stroke-linecap:butt;stroke-linejoin:miter;stroke-opacity:1"
       d="m 239.34472,164.58194 v 35.82384"
       id="path212724-1" />
    <path
       style="fill:none;stroke:#000000;stroke-width:0.264583px;stroke-linecap:butt;stroke-linejoin:miter;stroke-opacity:1"
       d="m 329.16389,164.58194 v 35.82384"
       id="path212724-13" />
  </g>
</svg>
